<svg width="1236" height="497" viewBox="0 0 1236 497" fill="none" xmlns="http://www.w3.org/2000/svg">
<path d="M1236 0H0V497H1236V0Z" fill="white"/>
<path d="M166 122H130C125.582 122 122 125.582 122 130V334C122 338.418 125.582 342 130 342H166C170.418 342 174 338.418 174 334V130C174 125.582 170.418 122 166 122Z" fill="#071F42"/>
<path d="M284 122H336C339.333 122 340 123.667 338 127L239 225C237 227 234 228 230 228H188C184 228 183.333 226.333 186 223L280 126C281.333 124.667 282.667 123.333 284 122Z" fill="#1260FF"/>
<path d="M188 238H236C238 238 240 239 242 241L337 336C339.667 340 338.667 342 334 342H283C280.333 342 278 341 276 339L185 245C181.667 240.333 182.667 238 188 238Z" fill="#1260FF"/>
<path d="M359.32 342V203.16H391.82V342H359.32ZM375.7 180.28C369.633 180.28 364.607 178.373 360.62 174.56C356.807 170.747 354.9 166.153 354.9 160.78C354.9 155.233 356.807 150.64 360.62 147C364.607 143.187 369.633 141.28 375.7 141.28C381.767 141.28 386.707 143.1 390.52 146.74C394.507 150.207 396.5 154.627 396.5 160C396.5 165.72 394.593 170.573 390.78 174.56C386.967 178.373 381.94 180.28 375.7 180.28ZM434.476 342V203.16H465.416V240.6L459.956 229.16C464.81 220.32 471.83 213.56 481.016 208.88C490.376 204.027 501.123 201.6 513.256 201.6C524.35 201.6 534.23 203.767 542.896 208.1C551.736 212.433 558.67 219.107 563.696 228.12C568.723 236.96 571.236 248.4 571.236 262.44V342H538.736V266.6C538.736 254.293 535.79 245.107 529.896 239.04C524.176 232.973 516.116 229.94 505.716 229.94C498.09 229.94 491.33 231.5 485.436 234.62C479.543 237.74 474.95 242.42 471.656 248.66C468.536 254.727 466.976 262.44 466.976 271.8V342H434.476ZM675.118 343.82C660.905 343.82 648.252 340.787 637.158 334.72C626.065 328.48 617.312 319.987 610.898 309.24C604.485 298.493 601.278 286.273 601.278 272.58C601.278 258.713 604.485 246.493 610.898 235.92C617.312 225.173 626.065 216.767 637.158 210.7C648.252 204.633 660.905 201.6 675.118 201.6C689.505 201.6 702.245 204.633 713.338 210.7C724.605 216.767 733.358 225.087 739.598 235.66C746.012 246.233 749.218 258.54 749.218 272.58C749.218 286.273 746.012 298.493 739.598 309.24C733.358 319.987 724.605 328.48 713.338 334.72C702.245 340.787 689.505 343.82 675.118 343.82ZM675.118 316C683.092 316 690.198 314.267 696.438 310.8C702.678 307.333 707.532 302.307 710.998 295.72C714.638 289.133 716.458 281.42 716.458 272.58C716.458 263.567 714.638 255.853 710.998 249.44C707.532 242.853 702.678 237.827 696.438 234.36C690.198 230.893 683.178 229.16 675.378 229.16C667.405 229.16 660.298 230.893 654.058 234.36C647.992 237.827 643.138 242.853 639.498 249.44C635.858 255.853 634.038 263.567 634.038 272.58C634.038 281.42 635.858 289.133 639.498 295.72C643.138 302.307 647.992 307.333 654.058 310.8C660.298 314.267 667.318 316 675.118 316ZM813.408 342L753.868 203.16H787.668L838.888 325.62H822.248L875.288 203.16H906.488L846.948 342H813.408ZM926.8 342V203.16H959.3V342H926.8ZM943.18 180.28C937.114 180.28 932.087 178.373 928.1 174.56C924.287 170.747 922.38 166.153 922.38 160.78C922.38 155.233 924.287 150.64 928.1 147C932.087 143.187 937.114 141.28 943.18 141.28C949.247 141.28 954.187 143.1 958 146.74C961.987 150.207 963.98 154.627 963.98 160C963.98 165.72 962.074 170.573 958.26 174.56C954.447 178.373 949.42 180.28 943.18 180.28ZM1087.5 342V313.92L1085.68 307.94V258.8C1085.68 249.267 1082.82 241.9 1077.1 236.7C1071.38 231.327 1062.71 228.64 1051.1 228.64C1043.3 228.64 1035.58 229.853 1027.96 232.28C1020.5 234.707 1014.18 238.087 1008.98 242.42L996.237 218.76C1003.69 213.04 1012.53 208.793 1022.76 206.02C1033.16 203.073 1043.9 201.6 1055 201.6C1075.1 201.6 1090.62 206.453 1101.54 216.16C1112.63 225.693 1118.18 240.513 1118.18 260.62V342H1087.5ZM1043.82 343.82C1033.42 343.82 1024.32 342.087 1016.52 338.62C1008.72 334.98 1002.65 330.04 998.317 323.8C994.157 317.387 992.077 310.193 992.077 302.22C992.077 294.42 993.897 287.4 997.537 281.16C1001.35 274.92 1007.5 269.98 1016 266.34C1024.49 262.7 1035.76 260.88 1049.8 260.88H1090.1V282.46H1052.14C1041.04 282.46 1033.59 284.28 1029.78 287.92C1025.96 291.387 1024.06 295.72 1024.06 300.92C1024.06 306.813 1026.4 311.493 1031.08 314.96C1035.76 318.427 1042.26 320.16 1050.58 320.16C1058.55 320.16 1065.66 318.34 1071.9 314.7C1078.31 311.06 1082.9 305.687 1085.68 298.58L1091.14 318.08C1088.02 326.227 1082.38 332.553 1074.24 337.06C1066.26 341.567 1056.12 343.82 1043.82 343.82Z" fill="#071F3F"/>
</svg>
